P3
64 48
255
0 128 255 0 128 255 0 128 255 0 128 255 0 128 255 0 128 255 0 128 255 0 128 255 0 128 255 0 128 255 0 128 255 0 128 255 0 128 255 0 128 255 0 128 255 0 128 255 0 128 255 0 128 255 0 128 255 0 128 255 0 128 255 0 128 255 0 128 255 0 128 255 0 128 255 0 128 255 0 128 255 0 128 255 0 128 255 0 128 255 0 128 255 0 128 255 0 128 255 0 128 255 0 128 255 0 128 255 0 128 255 0 128 255 0 128 255 0 128 255 0 128 255 0 128 255 0 128 255 0 128 255 0 128 255 0 128 255 0 128 255 0 128 255 0 128 255 0 128 255 0 128 255 0 128 255 0 128 255 0 128 255 0 128 255 0 128 255 0 128 255 0 128 255 0 128 255 0 128 255 0 128 255 0 128 255 0 128 255 0 128 255 0 128 255 0 128 255 0 128 255 0 128 255 0 128 255 0 128 255 0 128 255 0 128 255 0 128 255 0 128 255 0 128 255 0 128 255 0 128 255 0 128 255 0 128 255 0 128 255 0 128 255 0 128 255 0 128 255 0 128 255 0 128 255 0 128 255 0 128 255 0 128 255 0 128 255 0 128 255 0 128 255 0 128 255 0 128 255 0 128 255 0 128 255 0 128 255 0 128 255 0 128 255 0 128 255 0 128 255 0 128 255 0 128 255 0 128 255 0 128 255 0 128 255 0 128 255 0 128 255 0 128 255 0 128 255 0 128 255 0 128 255 0 128 255 0 128 255 0 128 255 0 128 255 0 128 255 0 128 255 0 128 255 0 128 255 0 128 255 0 128 255 0 128 255 0 128 255 0 128 255 0 128 255 0 128 255 0 128 255 0 128 255 0 128 255 0 128 255 0 128 255 0 128 255 0 128 255 0 128 255 0 128 255 0 128 255 0 128 255 0 128 255 0 128 255 0 128 255 0 128 255 0 128 255 0 128 255 0 128 255 0 128 255 0 128 255 0 128 255 0 128 255 0 128 255 0 128 255 0 128 255 0 128 255 0 128 255 0 128 255 0 128 255 0 128 255 0 128 255 0 128 255 0 128 255 0 128 255 0 128 255 0 128 255 0 128 255 0 128 255 0 128 255 0 128 255 0 128 255 0 128 255 0 128 255 0 128 255 0 128 255 0 128 255 0 128 255 0 128 255 0 128 255 0 128 255 0 128 255 0 128 255 0 128 255 0 128 255 0 128 255 0 128 255 0 128 255 0 128 255 0 128 255 0 128 255 0 128 255 0 128 255 0 128 255 0 128 255 0 128 255 0 128 255 0 128 255 0 128 255 0 128 255 0 128 255 0 128 255 0 128 255 0 128 255 0 128 255 0 128 255 0 128 255 0 128 255 0 128 255 0 128 255 0 128 255 0 128 255 0 128 255 0 128 255 0 128 255 0 128 255 0 128 255 0 128 255 0 128 255 0 128 255 0 128 255 0 128 255 0 128 255 0 128 255 0 128 255 0 128 255 0 128 255 0 128 255 0 128 255 0 128 255 0 128 255 0 128 255 0 128 255 0 128 255 0 128 255 0 128 255 0 128 255 0 128 255 0 128 255 0 128 255 0 128 255 0 128 255 0 128 255 0 128 255 0 128 255 0 128 255 0 128 255 0 128 255 0 128 255 0 128 255 0 128 255 0 128 255 0 128 255 0 128 255 0 128 255 0 128 255 0 128 255 0 128 255 0 128 255 0 128 255 0 128 255 0 128 255 0 128 255 0 128 255 0 128 255 0 128 255 0 128 255 0 128 255 0 128 255 0 128 255 0 128 255 0 128 255 0 128 255 0 128 255 0 128 255 0 128 255 0 128 255 0 128 255 0 128 255 0 128 255 0 128 255 0 128 255 0 128 255 0 128 255 0 128 255 0 128 255 0 128 255 0 128 255 0 128 255 0 128 255 0 128 255 0 128 255 0 128 255 0 128 255 0 128 255 0 128 255 0 128 255 0 128 255 0 128 255 0 128 255 0 128 255 0 128 255 0 128 255 0 128 255 0 128 255 0 128 255 0 128 255 0 128 255 0 128 255 0 128 255 0 128 255 0 128 255 0 128 255 0 128 255 0 128 255 0 128 255 0 128 255 0 128 255 0 128 255 0 128 255 0 128 255 0 128 255 0 128 255 0 128 255 0 128 255 0 128 255 0 128 255 0 128 255 0 128 255 0 128 255 0 128 255 0 128 255 0 128 255 0 128 255 0 128 255 0 128 255 0 128 255 0 128 255 0 128 255 0 128 255 0 128 255 0 128 255 0 128 255 0 128 255 0 128 255 0 128 255 0 128 255 0 128 255 0 128 255 0 128 255 0 128 255 0 128 255 0 128 255 0 128 255 0 128 255 0 128 255 0 128 255 0 128 255 0 128 255 0 128 255 0 128 255 0 128 255 0 128 255 0 128 255 0 128 255 0 128 255 0 128 255 0 128 255 0 128 255 0 128 255 0 128 255 0 128 255 0 128 255 0 128 255 0 128 255 0 128 255 0 128 255 0 128 255 0 128 255 0 128 255 0 128 255 0 128 255 0 128 255 0 128 255 0 128 255 0 128 255 0 128 255 0 128 255 0 128 255 0 128 255 0 128 255 0 128 255 0 128 255 0 128 255 0 128 255 0 128 255 0 128 255 0 128 255 0 128 255 0 128 255 0 128 255 0 128 255 0 128 255 0 128 255 0 128 255 0 128 255 0 128 255 0 128 255 0 128 255 0 128 255 0 128 255 0 128 255 0 128 255 0 128 255 0 128 255 0 128 255 0 128 255 0 128 255 0 128 255 0 128 255 0 128 255 0 128 255 0 128 255 0 128 255 0 128 255 0 128 255 0 128 255 0 128 255 0 128 255 0 128 255 0 128 255 0 128 255 0 128 255 0 128 255 0 128 255 0 128 255 0 128 255 0 128 255 0 128 255 0 128 255 0 128 255 0 128 255 0 128 255 0 128 255 0 128 255 0 128 255 0 128 255 0 128 255 0 128 255 0 128 255 0 128 255 0 128 255 0 128 255 0 128 255 0 128 255 0 128 255 0 128 255 0 128 255 0 128 255 0 128 255 0 128 255 0 128 255 0 128 255 0 128 255 0 128 255 0 128 255 0 128 255 0 128 255 0 128 255 0 128 255 0 128 255 0 128 255 0 128 255 0 128 255 0 128 255 0 128 255 0 128 255 0 128 255 0 128 255 0 128 255 0 128 255 0 128 255 0 128 255 0 128 255 0 128 255 0 128 255 0 128 255 0 128 255 0 128 255 0 128 255 0 128 255 0 128 255 0 128 255 0 128 255 0 128 255 0 128 255 0 128 255 0 128 255 0 128 255 0 128 255 0 128 255 0 128 255 0 128 255 0 128 255 0 128 255 0 128 255 0 128 255 0 128 255 0 128 255 0 128 255 0 128 255 0 128 255 0 128 255 0 128 255 0 128 255 0 128 255 0 128 255 0 128 255 0 128 255 0 128 255 0 128 255 0 128 255 255 0 128 0 128 255 0 128 255 0 128 255 0 128 255 0 128 255 0 128 255 0 128 255 0 128 255 0 128 255 0 128 255 0 128 255 0 128 255 0 128 255 0 128 255 0 128 255 0 128 255 0 128 255 0 128 255 0 128 255 0 128 255 0 128 255 0 128 255 0 128 255 0 128 255 0 128 255 0 128 255 0 128 255 0 128 255 0 128 255 0 128 255 0 128 255 0 128 255 0 128 255 0 128 255 0 128 255 0 128 255 0 128 255 0 128 255 0 128 255 0 128 255 0 128 255 0 128 255 0 128 255 0 128 255 0 128 255 0 128 255 0 128 255 0 128 255 0 128 255 0 128 255 0 128 255 0 128 255 0 128 255 0 128 255 0 128 255 0 128 255 0 128 255 0 128 255 0 128 255 0 128 255 0 128 255 0 128 255 0 128 255 0 128 255 0 128 255 0 128 255 0 128 255 0 128 255 0 128 255 0 128 255 0 128 255 0 128 255 0 128 255 0 128 255 0 128 255 0 128 255 0 128 255 0 128 255 0 128 255 0 128 255 0 128 255 0 128 255 0 128 255 0 128 255 0 128 255 0 128 255 0 128 255 0 128 255 0 128 255 0 128 255 0 128 255 0 128 255 0 128 255 0 128 255 0 128 255 0 128 255 0 128 255 0 128 255 0 128 255 0 128 255 0 128 255 0 128 255 0 128 255 0 128 255 0 128 255 0 128 255 0 128 255 0 128 255 0 128 255 0 128 255 0 128 255 0 128 255 0 128 255 0 128 255 0 128 255 0 128 255 0 128 255 0 128 255 0 128 255 0 128 255 0 128 255 0 128 255 0 128 255 0 128 255 0 128 255 0 128 255 0 128 255 0 128 255 0 128 255 0 128 255 0 128 255 0 128 255 0 128 255 0 128 255 0 128 255 0 128 255 0 128 255 0 128 255 0 128 255 0 128 255 0 128 255 0 128 255 0 128 255 0 128 255 0 128 255 0 128 255 0 128 255 0 128 255 0 128 255 0 128 255 0 128 255 0 128 255 0 128 255 0 128 255 0 128 255 0 128 255 0 128 255 0 128 255 0 128 255 0 128 255 0 128 255 0 128 255 0 128 255 0 128 255 0 128 255 0 128 255 0 128 255 0 128 255 0 128 255 0 128 255 0 128 255 0 128 255 0 128 255 0 128 255 0 128 255 0 128 255 0 128 255 0 128 255 0 128 255 0 128 255 0 128 255 0 128 255 0 128 255 0 128 255 0 128 255 0 128 255 0 128 255 0 128 255 0 128 255 0 128 255 0 128 255 0 128 255 0 128 255 0 128 255 0 128 255 0 128 255 0 128 255 0 128 255 0 128 255 0 128 255 0 128 255 0 128 255 0 128 255 0 128 255 0 128 255 0 128 255 0 128 255 0 128 255 0 128 255 0 128 255 0 128 255 0 128 255 0 128 255 0 128 255 0 128 255 0 128 255 0 128 255 0 128 255 0 128 255 0 128 255 0 128 255 0 128 255 0 128 255 0 128 255 0 128 255 0 128 255 0 128 255 0 128 255 0 128 255 0 128 255 0 128 255 0 128 255 0 128 255 0 128 255 0 128 255 0 128 255 0 128 255 0 128 255 0 128 255 0 128 255 0 128 255 0 128 255 0 128 255 0 128 255 0 128 255 0 128 255 0 128 255 0 128 255 0 128 255 0 128 255 0 128 255 0 128 255 0 128 255 0 128 255 0 128 255 0 128 255 0 128 255 0 128 255 0 128 255 0 128 255 0 128 255 0 128 255 0 128 255 0 128 255 0 128 255 0 128 255 0 128 255 0 128 255 0 128 255 0 128 255 0 128 255 0 128 255 0 128 255 0 128 255 0 128 255 0 128 255 0 128 255 0 128 255 0 128 255 0 128 255 0 128 255 0 128 255 0 128 255 0 128 255 0 128 255 0 128 255 0 128 255 0 128 255 0 128 255 0 128 255 0 128 255 0 128 255 0 128 255 0 128 255 0 128 255 0 128 255 0 128 255 0 128 255 0 128 255 0 128 255 0 128 255 0 128 255 0 128 255 0 128 255 0 128 255 0 128 255 0 128 255 0 128 255 0 128 255 0 128 255 0 128 255 0 128 255 0 128 255 0 128 255 0 128 255 0 128 255 0 128 255 0 128 255 0 128 255 0 128 255 0 128 255 0 128 255 0 128 255 0 128 255 0 128 255 0 128 255 0 128 255 0 128 255 0 128 255 0 128 255 0 128 255 0 128 255 0 128 255 0 128 255 0 128 255 0 128 255 0 128 255 0 128 255 0 128 255 0 128 255 0 128 255 0 128 255 0 128 255 0 128 255 0 128 255 0 128 255 0 128 255 0 128 255 0 128 255 0 128 255 0 128 255 0 128 255 0 128 255 0 128 255 0 128 255 0 128 255 0 128 255 0 128 255 0 128 255 0 128 255 0 128 255 0 128 255 0 128 255 0 128 255 0 128 255 0 128 255 0 128 255 0 128 255 0 128 255 0 128 255 0 128 255 0 128 255 0 128 255 0 128 255 0 128 255 0 128 255 0 128 255 0 128 255 0 128 255 0 128 255 0 128 255 0 128 255 0 128 255 0 128 255 0 128 255 0 128 255 0 128 255 0 128 255 0 128 255 0 128 255 0 128 255 0 128 255 0 128 255 0 128 255 0 128 255 0 128 255 0 128 255 0 128 255 0 128 255 0 128 255 0 128 255 0 128 255 0 128 255 0 128 255 0 128 255 0 128 255 0 128 255 0 128 255 0 128 255 0 128 255 0 128 255 0 128 255 0 128 255 0 128 255 0 128 255 0 128 255 0 128 255 0 128 255 0 128 255 0 128 255 0 128 255 0 128 255 0 128 255 0 128 255 0 128 255 0 128 255 0 128 255 0 128 255 0 128 255 0 128 255 0 128 255 0 128 255 0 128 255 0 128 255 0 128 255 0 128 255 0 128 255 0 128 255 0 128 255 0 128 255 0 128 255 0 128 255 0 128 255 0 128 255 0 128 255 0 128 255 0 128 255 0 128 255 0 128 255 0 128 255 0 128 255 0 128 255 0 128 255 0 128 255 0 128 255 0 128 255 0 128 255 0 128 255 0 128 255 0 128 255 0 128 255 0 128 255 0 128 255 0 128 255 0 128 255 0 128 255 0 128 255 0 128 255 0 128 255 0 128 255 0 128 255 0 128 255 0 128 255 0 128 255 0 128 255 0 128 255 0 128 255 0 128 255 0 128 255 0 128 255 0 128 255 0 128 255 0 128 255 0 128 255 0 128 255 0 128 255 0 128 255 0 128 255 0 128 255 0 128 255 0 128 255 0 128 255 0 128 255 0 128 255 0 128 255 0 128 255 0 128 255 0 128 255 0 128 255 0 128 255 0 128 255 0 128 255 0 128 255 0 128 255 0 128 255 0 128 255 0 128 255 0 128 255 0 128 255 0 128 255 0 128 255 0 128 255 0 128 255 0 128 255 0 128 255 0 128 255 0 128 255 0 128 255 0 128 255 0 128 255 0 128 255 0 128 255 0 128 255 0 128 255 0 128 255 0 128 255 0 128 255 0 128 255 0 128 255 0 128 255 0 128 255 0 128 255 0 128 255 0 128 255 0 128 255 0 128 255 0 128 255 0 128 255 0 128 255 0 128 255 0 128 255 0 128 255 0 128 255 0 128 255 0 128 255 0 128 255 0 128 255 0 128 255 0 128 255 0 128 255 0 128 255 0 128 255 0 128 255 0 128 255 0 128 255 0 128 255 0 128 255 0 128 255 0 128 255 0 128 255 0 128 255 0 128 255 0 128 255 0 128 255 0 128 255 0 128 255 0 128 255 0 128 255 0 128 255 0 128 255 0 128 255 0 128 255 0 128 255 0 128 255 0 128 255 0 128 255 0 128 255 0 128 255 0 128 255 0 128 255 0 128 255 0 128 255 0 128 255 0 128 255 0 128 255 0 128 255 0 128 255 0 128 255 0 128 255 0 128 255 0 128 255 0 128 255 0 128 255 0 128 255 0 128 255 0 128 255 0 128 255 0 128 255 0 128 255 0 128 255 0 128 255 0 128 255 0 128 255 0 128 255 0 128 255 0 128 255 0 128 255 0 128 255 0 128 255 0 128 255 0 128 255 0 128 255 0 128 255 0 128 255 0 128 255 0 128 255 0 128 255 0 128 255 0 128 255 0 128 255 0 128 255 0 128 255 0 128 255 0 128 255 0 128 255 0 128 255 0 128 255 0 128 255 0 128 255 0 128 255 0 128 255 0 128 255 0 128 255 0 128 255 0 128 255 0 128 255 0 128 255 0 128 255 0 128 255 0 128 255 0 128 255 0 128 255 0 128 255 0 128 255 0 128 255 0 128 255 0 128 255 0 128 255 0 128 255 0 128 255 0 128 255 0 128 255 0 128 255 0 128 255 0 128 255 0 128 255 0 128 255 0 128 255 0 128 255 0 128 255 0 128 255 0 128 255 0 128 255 0 128 255 0 128 255 0 128 255 0 128 255 0 128 255 0 128 255 0 128 255 0 128 255 0 128 255 0 128 255 0 128 255 0 128 255 0 128 255 0 128 255 0 128 255 0 128 255 0 128 255 0 128 255 0 128 255 0 128 255 0 128 255 0 128 255 0 128 255 0 128 255 0 128 255 0 128 255 0 128 255 0 128 255 0 128 255 0 128 255 0 128 255 0 128 255 0 128 255 0 128 255 0 128 255 0 128 255 0 128 255 0 128 255 0 128 255 0 128 255 0 128 255 0 128 255 0 128 255 0 128 255 0 128 255 0 128 255 0 128 255 0 128 255 0 128 255 0 128 255 0 128 255 0 128 255 0 128 255 0 128 255 0 128 255 0 128 255 0 128 255 0 128 255 0 128 255 0 128 255 0 128 255 0 128 255 0 128 255 0 128 255 0 128 255 0 128 255 0 128 255 0 128 255 0 128 255 0 128 255 0 128 255 0 128 255 0 128 255 0 128 255 0 128 255 0 128 255 0 128 255 0 128 255 0 128 255 0 128 255 0 128 255 0 128 255 0 128 255 0 128 255 0 128 255 0 128 255 0 128 255 0 128 255 0 128 255 0 128 255 0 128 255 0 128 255 0 128 255 0 128 255 0 128 255 0 128 255 0 128 255 0 128 255 0 128 255 0 128 255 0 128 255 0 128 255 0 128 255 0 128 255 0 128 255 0 128 255 0 128 255 0 128 255 0 128 255 0 128 255 0 128 255 0 128 255 0 128 255 0 128 255 0 128 255 0 128 255 0 128 255 0 128 255 0 128 255 0 128 255 0 128 255 0 128 255 0 128 255 0 128 255 0 128 255 0 128 255 0 128 255 0 128 255 0 128 255 0 128 255 0 128 255 0 128 255 0 128 255 0 128 255 0 128 255 0 128 255 0 128 255 0 128 255 0 128 255 0 128 255 0 128 255 0 128 255 0 128 255 0 128 255 0 128 255 0 128 255 0 128 255 0 128 255 0 128 255 0 128 255 0 128 255 0 128 255 0 128 255 0 128 255 0 128 255 0 128 255 0 128 255 0 128 255 0 128 255 0 128 255 0 128 255 0 128 255 0 128 255 0 128 255 0 128 255 0 128 255 0 128 255 0 128 255 0 128 255 0 128 255 0 128 255 0 128 255 0 128 255 0 128 255 0 128 255 0 128 255 0 128 255 0 128 255 0 128 255 0 128 255 0 128 255 0 128 255 0 128 255 0 128 255 0 128 255 0 128 255 0 128 255 0 128 255 0 128 255 0 128 255 0 128 255 0 128 255 0 128 255 0 128 255 0 128 255 0 128 255 0 128 255 0 128 255 0 128 255 0 128 255 0 128 255 0 128 255 0 128 255 0 128 255 0 128 255 0 128 255 0 128 255 0 128 255 0 128 255 0 128 255 0 128 255 0 128 255 0 128 255 0 128 255 0 128 255 0 128 255 0 128 255 0 128 255 0 128 255 0 128 255 0 128 255 0 128 255 0 128 255 0 128 255 0 128 255 0 128 255 0 128 255 0 128 255 0 128 255 0 128 255 0 128 255 0 128 255 0 128 255 0 128 255 0 128 255 0 128 255 0 128 255 0 128 255 0 128 255 0 128 255 0 128 255 0 128 255 0 128 255 0 128 255 0 128 255 0 128 255 0 128 255 0 128 255 0 128 255 0 128 255 0 128 255 0 128 255 0 128 255 0 128 255 0 128 255 0 128 255 0 128 255 0 128 255 0 128 255 0 128 255 0 128 255 0 128 255 0 128 255 0 128 255 0 128 255 0 128 255 0 128 255 0 128 255 0 128 255 0 128 255 0 128 255 0 128 255 0 128 255 0 128 255 0 128 255 0 128 255 0 128 255 0 128 255 0 128 255 0 128 255 0 128 255 0 128 255 0 128 255 0 128 255 0 128 255 0 128 255 0 128 255 0 128 255 0 128 255 0 128 255 0 128 255 0 128 255 0 128 255 0 128 255 0 128 255 0 128 255 0 128 255 0 128 255 0 128 255 0 128 255 0 128 255 0 128 255 0 128 255 0 128 255 0 128 255 0 128 255 0 128 255 0 128 255 0 128 255 0 128 255 0 128 255 0 128 255 0 128 255 0 128 255 0 128 255 0 128 255 0 128 255 0 128 255 0 128 255 0 128 255 0 128 255 0 128 255 0 128 255 0 128 255 0 128 255 0 128 255 0 128 255 0 128 255 0 128 255 0 128 255 0 128 255 0 128 255 0 128 255 0 128 255 0 128 255 0 128 255 0 128 255 0 128 255 0 128 255 0 128 255 0 128 255 0 128 255 0 128 255 0 128 255 0 128 255 0 128 255 0 128 255 0 128 255 0 128 255 0 128 255 0 128 255 0 128 255 0 128 255 0 128 255 0 128 255 0 128 255 0 128 255 0 128 255 0 128 255 0 128 255 0 128 255 0 128 255 0 128 255 0 128 255 0 128 255 0 128 255 0 128 255 0 128 255 0 128 255 0 128 255 0 128 255 0 128 255 0 128 255 0 128 255 0 128 255 0 128 255 0 128 255 0 128 255 0 128 255 0 128 255 0 128 255 0 128 255 0 128 255 0 128 255 0 128 255 0 128 255 0 128 255 0 128 255 0 128 255 0 128 255 0 128 255 0 128 255 0 128 255 0 128 255 0 128 255 0 128 255 0 128 255 0 128 255 0 128 255 0 128 255 0 128 255 0 128 255 0 128 255 0 128 255 0 128 255 0 128 255 0 128 255 0 128 255 0 128 255 0 128 255 0 128 255 0 128 255 0 128 255 0 128 255 0 128 255 0 128 255 0 128 255 0 128 255 0 128 255 0 128 255 0 128 255 0 128 255 0 128 255 0 128 255 0 128 255 0 128 255 0 128 255 0 128 255 0 128 255 0 128 255 0 128 255 0 128 255 0 128 255 0 128 255 0 128 255 0 128 255 0 128 255 0 128 255 0 128 255 0 128 255 0 128 255 0 128 255 0 128 255 0 128 255 0 128 255 0 128 255 0 128 255 0 128 255 0 128 255 0 128 255 0 128 255 0 128 255 0 128 255 0 128 255 0 128 255 0 128 255 0 128 255 0 128 255 0 128 255 0 128 255 0 128 255 0 128 255 0 128 255 0 128 255 0 128 255 0 128 255 0 128 255 0 128 255 0 128 255 0 128 255 0 128 255 0 128 255 0 128 255 0 128 255 0 128 255 0 128 255 0 128 255 0 128 255 0 128 255 0 128 255 0 128 255 0 128 255 0 128 255 0 128 255 0 128 255 0 128 255 0 128 255 0 128 255 0 128 255 0 128 255 0 128 255 0 128 255 0 128 255 0 128 255 0 128 255 0 128 255 0 128 255 0 128 255 0 128 255 0 128 255 0 128 255 0 128 255 0 128 255 0 128 255 0 128 255 0 128 255 0 128 255 0 128 255 0 128 255 0 128 255 0 128 255 0 128 255 0 128 255 0 128 255 0 128 255 0 128 255 0 128 255 0 128 255 0 128 255 0 128 255 0 128 255 0 128 255 0 128 255 0 128 255 0 128 255 0 128 255 0 128 255 0 128 255 0 128 255 0 128 255 0 128 255 0 128 255 0 128 255 0 128 255 0 128 255 0 128 255 0 128 255 0 128 255 0 128 255 0 128 255 0 128 255 0 128 255 0 128 255 0 128 255 0 128 255 0 128 255 0 128 255 0 128 255 0 128 255 0 128 255 0 128 255 0 128 255 0 128 255 0 128 255 0 128 255 0 128 255 0 128 255 0 128 255 0 128 255 0 128 255 0 128 255 0 128 255 0 128 255 0 128 255 0 128 255 0 128 255 0 128 255 0 128 255 0 128 255 0 128 255 0 128 255 0 128 255 0 128 255 0 128 255 0 128 255 0 128 255 0 128 255 0 128 255 0 128 255 0 128 255 0 128 255 0 128 255 0 128 255 0 128 255 0 128 255 0 128 255 0 128 255 0 128 255 0 128 255 0 128 255 0 128 255 0 128 255 0 128 255 0 128 255 0 128 255 0 128 255 0 128 255 0 128 255 0 128 255 0 128 255 0 128 255 0 128 255 0 128 255 0 128 255 0 128 255 0 128 255 0 128 255 0 128 255 0 128 255 0 128 255 0 128 255 0 128 255 0 128 255 0 128 255 0 128 255 0 128 255 0 128 255 0 128 255 0 128 255 0 128 255 0 128 255 0 128 255 0 128 255 0 128 255 0 128 255 0 128 255 0 128 255 0 128 255 0 128 255 0 128 255 0 128 255 0 128 255 0 128 255 0 128 255 0 128 255 0 128 255 0 128 255 0 128 255 0 128 255 0 128 255 0 128 255 0 128 255 0 128 255 0 128 255 0 128 255 0 128 255 0 128 255 0 128 255 0 128 255 0 128 255 0 128 255 0 128 255 0 128 255 0 128 255 0 128 255 0 128 255 0 128 255 0 128 255 0 128 255 0 128 255 0 128 255 0 128 255 0 128 255 0 128 255 0 128 255 0 128 255 0 128 255 0 128 255 0 128 255 0 128 255 0 128 255 0 128 255 0 128 255 0 128 255 0 128 255 0 128 255 0 128 255 0 128 255 0 128 255 0 128 255 0 128 255 0 128 255 0 128 255 0 128 255 0 128 255 0 128 255 0 128 255 0 128 255 0 128 255 0 128 255 0 128 255 0 128 255 0 128 255 0 128 255 0 128 255 0 128 255 0 128 255 0 128 255 0 128 255 0 128 255 0 128 255 0 128 255 0 128 255 0 128 255 0 128 255 0 128 255 0 128 255 0 128 255 0 128 255 0 128 255 0 128 255 0 128 255 0 128 255 0 128 255 0 128 255 0 128 255 0 128 255 0 128 255 0 128 255 0 128 255 0 128 255 0 128 255 0 128 255 0 128 255 0 128 255 0 128 255 0 128 255 0 128 255 0 128 255 0 128 255 0 128 255 0 128 255 0 128 255 0 128 255 0 128 255 0 128 255 0 128 255 0 128 255 0 128 255 0 128 255 0 128 255 0 128 255 0 128 255 0 128 255 0 128 255 0 128 255 0 128 255 0 128 255 0 128 255 0 128 255 0 128 255 0 128 255 0 128 255 0 128 255 0 128 255 0 128 255 0 128 255 0 128 255 0 128 255 255 255 255 255 255 255 255 255 255 255 255 255 255 255 255 255 255 255 255 255 255 255 255 255 255 255 255 255 255 255 255 255 255 255 255 255 255 255 255 255 255 255 255 255 255 255 255 255 255 255 255 255 255 255 255 255 255 255 255 255 255 255 255 0 128 255 0 128 255 0 128 255 0 128 255 0 128 255 0 128 255 0 128 255 0 128 255 0 128 255 0 128 255 0 128 255 0 128 255 0 128 255 0 128 255 0 128 255 0 128 255 0 128 255 0 128 255 0 128 255 0 128 255 0 128 255 0 128 255 0 128 255 0 128 255 0 128 255 0 128 255 0 128 255 0 128 255 0 128 255 0 128 255 0 128 255 0 128 255 0 128 255 0 128 255 0 128 255 0 128 255 0 128 255 0 128 255 0 128 255 0 128 255 0 128 255 0 128 255 0 128 255 255 255 255 255 255 255 255 255 255 255 255 255 255 255 255 255 255 255 255 255 255 255 255 255 255 255 255 255 255 255 255 255 255 255 255 255 255 255 255 255 255 255 255 255 255 255 255 255 255 255 255 255 255 255 255 255 255 255 255 255 255 255 255 0 128 255 0 128 255 0 128 255 0 128 255 0 128 255 0 128 255 0 128 255 0 128 255 0 128 255 0 128 255 0 128 255 0 128 255 0 128 255 0 128 255 0 128 255 0 128 255 0 128 255 0 128 255 0 128 255 0 128 255 0 128 255 0 128 255 0 128 255 0 128 255 0 128 255 0 128 255 0 128 255 0 128 255 0 128 255 0 128 255 0 128 255 0 128 255 0 128 255 0 128 255 0 128 255 0 128 255 0 128 255 0 128 255 0 128 255 0 128 255 0 128 255 0 128 255 0 128 255 255 255 255 255 255 255 255 255 255 255 255 255 255 255 255 255 255 255 255 255 255 255 255 255 255 255 255 255 255 255 255 255 255 255 255 255 255 255 255 255 255 255 255 255 255 255 255 255 255 255 255 255 255 255 255 255 255 255 255 255 255 255 255 0 128 255 0 128 255 0 128 255 0 128 255 0 128 255 0 128 255 0 128 255 0 128 255 0 128 255 0 128 255 0 128 255 0 128 255 0 128 255 0 128 255 0 128 255 0 128 255 0 128 255 0 128 255 0 128 255 0 128 255 0 128 255 0 128 255 0 128 255 0 128 255 0 128 255 0 128 255 0 128 255 0 128 255 0 128 255 0 128 255 0 128 255 0 128 255 0 128 255 0 128 255 0 128 255 0 128 255 0 128 255 0 128 255 0 128 255 0 128 255 0 128 255 0 128 255 0 128 255 255 255 255 255 255 255 255 255 255 255 255 255 255 255 255 255 255 255 255 255 255 255 255 255 255 255 255 255 255 255 255 255 255 255 255 255 255 255 255 255 255 255 255 255 255 255 255 255 255 255 255 255 255 255 255 255 255 255 255 255 255 255 255 0 128 255 0 128 255 0 128 255 0 128 255 0 128 255 0 128 255 0 128 255 0 128 255 0 128 255 0 128 255 0 128 255 0 128 255 0 128 255 0 128 255 0 128 255 0 128 255 0 128 255 0 128 255 0 128 255 0 128 255 0 128 255 0 128 255 0 128 255 0 128 255 0 128 255 0 128 255 0 128 255 0 128 255 0 128 255 0 128 255 0 128 255 0 128 255 0 128 255 0 128 255 0 128 255 0 128 255 0 128 255 0 128 255 0 128 255 0 128 255 0 128 255 0 128 255 0 128 255 255 255 255 255 255 255 255 255 255 255 255 255 255 255 255 255 255 255 255 255 255 255 255 255 255 255 255 255 255 255 255 255 255 255 255 255 255 255 255 255 255 255 255 255 255 255 255 255 255 255 255 255 255 255 255 255 255 255 255 255 255 255 255 0 128 255 0 128 255 0 128 255 0 128 255 0 128 255 0 128 255 0 128 255 0 128 255 0 128 255 0 128 255 0 128 255 0 128 255 0 128 255 0 128 255 0 128 255 0 128 255 0 128 255 0 128 255 0 128 255 0 128 255 0 128 255 0 128 255 0 128 255 0 128 255 0 128 255 0 128 255 0 128 255 0 128 255 0 128 255 0 128 255 0 128 255 0 128 255 0 128 255 0 128 255 0 128 255 0 128 255 0 128 255 0 128 255 0 128 255 0 128 255 0 128 255 0 128 255 0 128 255 255 255 255 255 255 255 255 255 255 255 255 255 255 255 255 255 255 255 255 255 255 255 255 255 255 255 255 255 255 255 255 255 255 255 255 255 255 255 255 255 255 255 255 255 255 255 255 255 255 255 255 255 255 255 255 255 255 255 255 255 255 255 255 0 128 255 0 128 255 0 128 255 0 128 255 0 128 255 0 128 255 0 128 255 0 128 255 0 128 255 0 128 255 0 128 255 0 128 255 0 128 255 0 128 255 0 128 255 0 128 255 0 128 255 0 128 255 0 128 255 0 128 255 0 128 255 0 128 255 0 128 255 0 128 255 0 128 255 0 128 255 0 128 255 0 128 255 0 128 255 0 128 255 0 128 255 0 128 255 0 128 255 0 128 255 0 128 255 0 128 255 0 128 255 0 128 255 0 128 255 0 128 255 0 128 255 0 128 255 0 128 255 255 255 255 255 255 255 255 255 255 255 255 255 255 255 255 255 255 255 255 255 255 255 255 255 255 255 255 255 255 255 255 255 255 255 255 255 255 255 255 255 255 255 255 255 255 255 255 255 255 255 255 255 255 255 255 255 255 255 255 255 255 255 255 0 128 255 0 128 255 0 128 255 0 128 255 0 128 255 0 128 255 0 128 255 0 128 255 0 128 255 0 128 255 0 128 255 0 128 255 0 128 255 0 128 255 0 128 255 0 128 255 0 128 255 0 128 255 0 128 255 0 128 255 0 128 255 0 128 255 0 128 255 0 128 255 0 128 255 0 128 255 0 128 255 0 128 255 0 128 255 0 128 255 0 128 255 0 128 255 0 128 255 0 128 255 0 128 255 0 128 255 0 128 255 0 128 255 0 128 255 0 128 255 0 128 255 0 128 255 0 128 255 255 255 255 255 255 255 255 255 255 255 255 255 255 255 255 255 255 255 255 255 255 255 255 255 255 255 255 255 255 255 255 0 128 255 255 255 255 255 255 255 255 255 255 255 255 255 255 255 255 255 255 255 255 255 255 255 255 255 255 255 255 255 255 0 128 255 0 128 255 0 128 255 0 128 255 0 128 255 0 128 255 0 128 255 0 128 255 0 128 255 0 128 255 0 128 255 0 128 255 0 128 255 0 128 255 0 128 255 0 128 255 0 128 255 0 128 255 0 128 255 0 128 255 0 128 255 0 128 255 0 128 255 0 128 255 0 128 255 0 128 255 0 128 255 0 128 255 0 128 255 0 128 255 0 128 255 0 128 255 0 128 255 0 128 255 0 128 255 0 128 255 0 128 255 0 128 255 0 128 255 0 128 255 0 128 255 0 128 255 0 128 255 255 255 255 255 255 255 255 255 255 255 255 255 255 255 255 255 255 255 255 255 255 255 255 255 255 255 255 255 255 255 255 255 255 255 255 255 255 255 255 255 255 255 255 255 255 255 255 255 255 255 255 255 255 255 255 255 255 255 255 255 255 255 255 0 128 255 0 128 255 0 128 255 0 128 255 0 128 255 0 128 255 0 128 255 0 128 255 0 128 255 0 128 255 0 128 255 0 128 255 0 128 255 0 128 255 0 128 255 0 128 255 0 128 255 0 128 255 0 128 255 0 128 255 0 128 255 0 128 255 0 128 255 0 128 255 0 128 255 0 128 255 0 128 255 0 128 255 0 128 255 0 128 255 0 128 255 0 128 255 0 128 255 0 128 255 0 128 255 0 128 255 0 128 255 0 128 255 0 128 255 0 128 255 0 128 255 0 128 255 0 128 255 255 255 255 255 255 255 255 255 255 255 255 255 255 255 255 255 255 255 255 255 255 255 255 255 255 255 255 255 255 255 255 255 255 255 255 255 255 255 255 255 255 255 255 255 255 255 255 255 255 255 255 255 255 255 255 255 255 255 255 255 255 255 255 0 128 255 0 128 255 0 128 255 0 128 255 0 128 255 0 128 255 0 128 255 0 128 255 0 128 255 0 128 255 0 128 255 0 128 255 0 128 255 0 128 255 0 128 255 0 128 255 0 128 255 0 128 255 0 128 255 0 128 255 0 128 255 0 128 255 0 128 255 0 128 255 0 128 255 0 128 255 0 128 255 0 128 255 0 128 255 0 128 255 0 128 255 0 128 255 0 128 255 0 128 255 0 128 255 0 128 255 0 128 255 0 128 255 0 128 255 0 128 255 0 128 255 0 128 255 0 128 255 255 255 255 255 255 255 255 255 255 255 255 255 255 255 255 255 255 255 255 255 255 255 255 255 255 255 255 255 255 255 255 255 255 255 255 255 255 255 255 255 255 255 255 255 255 255 255 255 255 255 255 255 255 255 255 255 255 255 255 255 255 255 255 0 128 255 0 128 255 0 128 255 0 128 255 0 128 255 0 128 255 0 128 255 0 128 255 0 128 255 0 128 255 0 128 255 0 128 255 0 128 255 0 128 255 0 128 255 0 128 255 0 128 255 0 128 255 0 128 255 0 128 255 0 128 255 0 128 255 0 128 255 0 128 255 0 128 255 0 128 255 0 128 255 0 128 255 0 128 255 0 128 255 0 128 255 0 128 255 0 128 255 0 128 255 0 128 255 0 128 255 0 128 255 0 128 255 0 128 255 0 128 255 0 128 255 0 128 255 0 128 255 255 255 255 255 255 255 255 255 255 255 255 255 255 255 255 255 255 255 255 255 255 255 255 255 255 255 255 255 255 255 255 255 255 255 255 255 255 255 255 255 255 255 255 255 255 255 255 255 255 255 255 255 255 255 255 255 255 255 255 255 255 255 255 0 128 255 0 128 255 0 128 255 0 128 255 0 128 255 0 128 255 0 128 255 0 128 255 0 128 255 0 128 255 0 128 255 0 128 255 0 128 255 0 128 255 0 128 255 0 128 255 0 128 255 0 128 255 0 128 255 0 128 255 0 128 255 0 128 255 0 128 255 0 128 255 0 128 255 0 128 255 0 128 255 0 128 255 0 128 255 0 128 255 0 128 255 0 128 255 0 128 255 0 128 255 0 128 255 0 128 255 0 128 255 0 128 255 0 128 255 0 128 255 0 128 255 0 128 255 0 128 255 255 255 255 255 255 255 255 255 255 255 255 255 255 255 255 255 255 255 255 255 255 255 255 255 255 255 255 255 255 255 255 255 255 255 255 255 255 255 255 255 255 255 255 255 255 255 255 255 255 255 255 255 255 255 255 255 255 255 255 255 255 255 255 0 128 255 0 128 255 0 128 255 0 128 255 0 128 255 0 128 255 0 128 255 0 128 255 0 128 255 0 128 255 0 128 255 0 128 255 0 128 255 0 128 255 0 128 255 0 128 255 0 128 255 0 128 255 0 128 255 0 128 255 0 128 255 0 128 255 0 128 255 0 128 255 0 128 255 0 128 255 0 128 255 0 128 255 0 128 255 0 128 255 0 128 255 0 128 255 0 128 255 0 128 255 0 128 255 0 128 255 0 128 255 0 128 255 0 128 255 0 128 255 0 128 255 0 128 255 0 128 255 255 255 255 255 255 255 255 255 255 255 255 255 255 255 255 255 255 255 255 255 255 255 255 255 255 255 255 255 255 255 255 255 255 255 255 255 255 255 255 255 255 255 255 255 255 255 255 255 255 255 255 255 255 255 255 255 255 255 255 255 255 255 255 0 128 255 0 128 255 0 128 255 0 128 255 0 128 255 0 128 255 0 128 255 0 128 255 0 128 255 0 128 255 0 128 255 0 128 255 0 128 255 0 128 255 0 128 255 0 128 255 0 128 255 0 128 255 0 128 255 0 128 255 0 128 255 0 128 255 0 128 255 0 128 255 0 128 255 0 128 255 0 128 255 0 128 255 0 128 255 0 128 255 0 128 255 0 128 255 0 128 255 0 128 255 0 128 255 0 128 255 0 128 255 0 128 255 0 128 255 0 128 255 0 128 255 0 128 255 0 128 255 255 255 255 255 255 255 255 255 255 255 255 255 255 255 255 255 255 255 255 255 255 255 255 255 255 255 255 255 255 255 255 255 255 255 255 255 255 255 255 255 255 255 255 255 255 255 255 255 255 255 255 255 255 255 255 255 255 255 255 255 255 255 255 0 128 255 0 128 255 0 128 255 0 128 255 0 128 255 0 128 255 0 128 255 0 128 255 0 128 255 0 128 255 0 128 255 0 128 255 0 128 255 0 128 255 0 128 255 0 128 255 0 128 255 0 128 255 0 128 255 0 128 255 0 128 255 0 128 255 0 128 255 0 128 255 0 128 255 0 128 255 0 128 255 0 128 255 0 128 255 0 128 255 0 128 255 0 128 255 0 128 255 0 128 255 0 128 255 0 128 255 0 128 255 0 128 255 0 128 255 0 128 255 0 128 255 0 128 255 0 128 255 255 255 255 255 255 255 255 255 255 255 255 255 255 255 255 255 255 255 255 255 255 255 255 255 255 255 255 255 255 255 255 255 255 255 255 255 255 255 255 255 255 255 255 255 255 255 255 255 255 255 255 255 255 255 255 255 255 255 255 255 255 255 255 0 128 255 0 128 255 0 128 255 0 128 255 0 128 255 0 128 255 0 128 255 0 128 255 0 128 255 0 128 255 0 128 255 0 128 255 0 128 255 0 128 255 0 128 255 0 128 255 0 128 255 0 128 255 0 128 255 0 128 255 0 128 255 0 128 255 0 128 255 0 128 255 0 128 255 0 128 255 0 128 255 0 128 255 0 128 255 0 128 255 0 128 255 0 128 255 0 128 255 0 128 255 0 128 255 0 128 255 0 128 255 0 128 255 0 128 255 0 128 255 0 128 255 0 128 255 0 128 255 0 128 255 0 128 255 0 128 255 0 128 255 0 128 255 0 128 255 0 128 255 0 128 255 0 128 255 0 128 255 0 128 255 0 128 255 0 128 255 0 128 255 0 128 255 0 128 255 0 128 255 0 128 255 0 128 255 0 128 255 0 128 255 0 128 255 0 128 255 0 128 255 0 128 255 0 128 255 0 128 255 0 128 255 0 128 255 0 128 255 0 128 255 0 128 255 0 128 255 0 128 255 0 128 255 0 128 255 0 128 255 0 128 255 0 128 255 0 128 255 0 128 255 0 128 255 0 128 255 0 128 255 0 128 255 0 128 255 0 128 255 0 128 255 0 128 255 0 128 255 0 128 255 0 128 255 0 128 255 0 128 255 0 128 255 0 128 255 0 128 255 0 128 255 0 128 255 0 128 255 0 128 255 0 128 255 0 128 255 0 128 255 0 128 255 0 128 255 0 128 255 0 128 255 0 128 255 0 128 255 0 128 255 0 128 255 0 128 255 0 128 255 0 128 255 0 128 255 0 128 255 0 128 255 0 128 255 0 128 255 0 128 255 0 128 255 0 128 255 0 128 255 0 128 255 0 128 255 0 128 255 0 128 255 0 128 255 0 128 255 0 128 255 0 128 255 0 128 255 0 128 255 0 128 255 0 128 255 0 128 255 0 128 255 0 128 255 0 128 255 0 128 255 0 128 255 0 128 255 0 128 255 0 128 255 0 128 255 0 128 255 0 128 255 